<svg version="1.1" width="48.000000" height="48.000000" viewBox="0.000000 0.000000 48.000000 48.000000" xmlns="http://www.w3.org/2000/svg" xmlns:xlink="http://www.w3.org/1999/xlink" overflow="hidden"><style>
.MsftOfcThm_Background1_Fill {
 fill:#FFFFFF; 
}
.MsftOfcThm_Background1_Stroke {
 stroke:#FFFFFF; 
}
</style>
<g id="Expanded"><g><g><path d=" M 41.000000 48.000000 L 7.000000 48.000000 L 7.000000 7.000000 L 41.000000 7.000000 L 41.000000 48.000000 Z M 9.000000 46.000000 L 39.000000 46.000000 L 39.000000 9.000000 L 9.000000 9.000000 L 9.000000 46.000000 Z" stroke="#FFFFFF" stroke-width="0.993103" stroke-dasharray="" stroke-dashoffset="1.000000" stroke-opacity="1.000000" fill="#FFFFFF" fill-opacity="1.000000"/></g><g><path d=" M 35.000000 9.000000 L 13.000000 9.000000 L 13.000000 1.000000 L 35.000000 1.000000 L 35.000000 9.000000 Z M 15.000000 7.000000 L 33.000000 7.000000 L 33.000000 3.000000 L 15.000000 3.000000 L 15.000000 7.000000 Z" stroke="#FFFFFF" stroke-width="0.993103" stroke-dasharray="" stroke-dashoffset="1.000000" stroke-opacity="1.000000" fill="#FFFFFF" fill-opacity="1.000000"/></g><g><path d=" M 16.000000 41.000000 C 15.447000 41.000000 15.000000 40.553001 15.000000 40.000000 L 15.000000 15.000000 C 15.000000 14.447000 15.447000 14.000000 16.000000 14.000000 C 16.552999 14.000000 17.000000 14.447000 17.000000 15.000000 L 17.000000 40.000000 C 17.000000 40.553001 16.552999 41.000000 16.000000 41.000000 Z" stroke="#FFFFFF" stroke-width="0.993103" stroke-dasharray="" stroke-dashoffset="1.000000" stroke-opacity="1.000000" fill="#FFFFFF" fill-opacity="1.000000"/></g><g><path d=" M 24.000000 41.000000 C 23.447001 41.000000 23.000000 40.553001 23.000000 40.000000 L 23.000000 15.000000 C 23.000000 14.447000 23.447001 14.000000 24.000000 14.000000 C 24.552999 14.000000 25.000000 14.447000 25.000000 15.000000 L 25.000000 40.000000 C 25.000000 40.553001 24.552999 41.000000 24.000000 41.000000 Z" stroke="#FFFFFF" stroke-width="0.993103" stroke-dasharray="" stroke-dashoffset="1.000000" stroke-opacity="1.000000" fill="#FFFFFF" fill-opacity="1.000000"/></g><g><path d=" M 32.000000 41.000000 C 31.447001 41.000000 31.000000 40.553001 31.000000 40.000000 L 31.000000 15.000000 C 31.000000 14.447000 31.447001 14.000000 32.000000 14.000000 C 32.553001 14.000000 33.000000 14.447000 33.000000 15.000000 L 33.000000 40.000000 C 33.000000 40.553001 32.553001 41.000000 32.000000 41.000000 Z" stroke="#FFFFFF" stroke-width="0.993103" stroke-dasharray="" stroke-dashoffset="1.000000" stroke-opacity="1.000000" fill="#FFFFFF" fill-opacity="1.000000"/></g><g><rect x="0.000000" y="7.000000" width="48.000000" height="2.000000" stroke="#FFFFFF" stroke-width="0.993103" stroke-dasharray="" stroke-dashoffset="1.000000" stroke-opacity="1.000000" fill="#FFFFFF" fill-opacity="1.000000"/></g></g></g></svg>