<svg viewBox="0 0 128.9 37.8" xmlns="http://www.w3.org/2000/svg"><g fill="#fff"><path d="M54.6 8.8l1.9-7.1C53.5.5 50.2 0 47 0c-2.4 0-4.9.3-7.2.9v7.4c2.4-.7 4.9-1 7.4-1 2.4.1 5 .6 7.4 1.5m-6.5 9.8v11.2c-2.8.6-5.7.6-8.4 0v7.6c.9.1 1.9.2 2.9.2 4.6 0 10.2-.6 13.8-1.9V18.6h-8.3zM1.8 28.8l-1.8 7c3.1 1.4 6.4 2.1 9.7 2.1 2.4.1 4.7-.2 7-.8v-7c-2.1.8-4.3 1.2-6.5.9-2.9-.2-5.8-.9-8.4-2.2M16.7 7.2V.4C6.9-1.2 0 3 0 10.8c0 6.9 6.3 9.9 11.6 11.9 1.8.6 3.5 1.3 5.1 2.3v-7.9l-4-1.9c-2.2-1.1-4.3-2.4-4.3-4.6 0-1.7 1-3.7 4.9-3.7 1.1 0 2.3.1 3.4.3m7.3 4.6v25.6h8.4v-34c-3.7 1.7-6.7 4.7-8.4 8.4m43.7-.5c-.5 0-1-.1-1.4-.2l.1-1.3c.5.2 1 .2 1.5.3s1.1-.2 1.2-.8v-.1c0-1.3-3-.7-3-3 0-1.3 1-2.1 2.7-2.1.4 0 .9 0 1.3.1L70 5.4c-.4-.1-.8-.2-1.3-.2-.5-.1-1 .2-1.2.7V6c0 1.3 3 .8 3 3 0 1.3-1.1 2.3-2.8 2.3M74 7c-.7 0-1.2.7-1.2 1.4v.2c0 1.1.4 1.6 1.2 1.6.7 0 1.2-.5 1.2-1.6-.1-1-.4-1.6-1.2-1.6m-.2 4.3c-1.5 0-2.4-.8-2.4-2.6-.1-1.4 1-2.7 2.4-2.8h.2c1.5 0 2.4.8 2.4 2.6.1 1.4-1 2.7-2.4 2.8h-.2m7.1-6.6c-.2-.1-.4-.1-.6-.1-.4 0-.8.3-.9.7V6h1.2v1h-1.2v4.2h-1.3V7h-.9V6h.9v-.4c-.2-1 .5-1.9 1.5-2.1h.6c.3 0 .6 0 .8.1zm2.7 6.6c-1.1 0-1.5-.4-1.5-1.6V7h-.9V6h.9V4.4l1.3-.4v2h1.3v1h-1.3v2.3c0 .7.2.9.6.9.2 0 .4 0 .6-.1v1.1c-.3 0-.6.1-1 .1m8.2-.1h-1.4l-.8-2.3-.3-1.2c-.1.5-.2.9-.3 1.3l-.7 2.2h-1.4L85.4 6h1.5l.6 2c.1.5.3 1 .4 1.6 0-.6.1-1.1.3-1.6l.6-2h1.3l.6 2c.2.5.3 1 .4 1.6.1-.5.2-1 .4-1.5l.6-2h1.4zM97 8.9c-1.4 0-1.7.4-1.7.8 0 .3.2.5.5.6h.1c.6 0 1.1-.6 1.1-1.3zm.1 2.3c0-.3 0-.6.1-.9-.3.6-1 1-1.7 1-.7.1-1.4-.4-1.5-1.1V10c0-1.3 1.2-2 3-2v-.3c0-.5-.3-.8-1-.8-.5 0-1.1.2-1.5.4l-.1-1.1c.6-.2 1.2-.3 1.9-.3 1.7 0 2.1.7 2.1 1.8v3.5h-1.3zm5.7-4c-1-.2-1.4.4-1.4 1.9v2.1H100V6h1.3c0 .3 0 .7-.1 1 .2-.7.9-1.2 1.6-1.2zm3-.3c-.6 0-1 .5-1 1h1.9c.1-.5-.2-.9-.7-1h-.2m2.2 1.9h-3.2c-.1.7.4 1.3 1 1.4h.4c.5 0 1-.1 1.5-.3l.1 1c-.6.2-1.2.3-1.9.3-1.6 0-2.6-.8-2.6-2.6 0-1.6.9-2.8 2.4-2.8 1.1-.1 2.1.8 2.2 1.9v.4c.2.3.1.5.1.7M66.4 16h1.4v7h-1.4zm9.2 7v-3.3c0-.6-.1-.9-.6-.9-.8.2-1.3.9-1.2 1.7V23h-1.3v-3.3c0-.5-.1-.9-.6-.9-.8.2-1.3.9-1.2 1.7V23h-1.3v-5.2h1.3c0 .3 0 .6-.1.9.3-.7 1-1.1 1.7-1 .7-.1 1.3.4 1.4 1 .3-.6 1-1.1 1.7-1 .8-.1 1.5.5 1.6 1.3v4zm5.5-4.2c-.7 0-1.1.8-1.1 1.7V22c.2.1.5.1.7.1.8 0 1.3-.5 1.3-1.8 0-1-.3-1.5-.9-1.5m-.5 4.3h-.7v2.5h-1.3v-7.7h1.2c0 .3 0 .6-.1.9.3-.6.9-1 1.6-1 1.2 0 1.9.9 1.9 2.4.1 1.8-.8 2.9-2.6 2.9m6.8-4.1c-1-.2-1.4.4-1.4 1.9V23h-1.3v-5.2H86c0 .3 0 .7-.1 1 .2-.7.9-1.2 1.6-1.2zm3.2-.1c-.7 0-1.2.7-1.2 1.4v.2c0 1.1.4 1.6 1.2 1.6.7 0 1.2-.5 1.2-1.6s-.4-1.6-1.2-1.6m-.1 4.2c-1.5 0-2.4-.8-2.4-2.6-.1-1.4 1-2.7 2.4-2.8h.2c1.5 0 2.4.8 2.4 2.6.1 1.4-1 2.7-2.4 2.8h-.2m6.4-.1h-1.4l-1.9-5.2h1.5l.8 2.3c.1.4.2.8.3 1.1.1-.4.2-.7.3-1.1l.8-2.4h1.4zm4.7-4.3c-.6 0-1 .5-1 1h1.9c.1-.5-.2-.9-.7-1h-.2m2.2 1.9h-3.2c-.1.7.4 1.3 1 1.4h.4c.5 0 1-.1 1.5-.3l.1 1c-.6.2-1.2.3-1.9.3-1.6 0-2.6-.8-2.6-2.6 0-1.6.9-2.8 2.4-2.8 1.1-.1 2.1.8 2.2 1.9v.4c.1.3.1.5.1.7m7.6 2.4v-3.3c0-.6-.1-.9-.6-.9-.8.2-1.3.9-1.2 1.7V23h-1.3v-3.3c0-.5-.1-.9-.6-.9-.8.2-1.3.9-1.2 1.7V23h-1.3v-5.2h1.3c0 .3 0 .6-.1.9.3-.7 1-1.1 1.7-1 .7-.1 1.3.4 1.4 1 .3-.6 1-1.1 1.7-1 .8-.1 1.5.5 1.6 1.3v4zm5-4.3c-.6 0-1 .5-1 1h1.9c.1-.5-.2-.9-.7-1h-.2m2.2 1.9h-3.2c-.1.7.4 1.3 1 1.4h.4c.5 0 1-.1 1.5-.3l.1 1c-.6.2-1.2.3-1.9.3-1.6 0-2.6-.8-2.6-2.6 0-1.6.9-2.8 2.4-2.8 1.1-.1 2.1.8 2.2 1.9v.4c.2.3.1.5.1.7m4.6 2.4v-3.3c0-.5-.1-.9-.6-.9-.8.2-1.3.9-1.2 1.7V23H120v-5.2h1.3c0 .3 0 .6-.1.9.3-.7 1-1.1 1.8-1 .8-.1 1.5.5 1.6 1.3v4h-1.4zm4.6.1c-1.1 0-1.5-.4-1.5-1.6v-2.6h-.9v-1h.9v-1.6l1.3-.4v2h1.3v1h-1.3v2.3c0 .7.2.9.6.9.2 0 .4 0 .6-.1v1c-.2.1-.6.1-1 .1m-56.1 6.2c-.6-.2-1.2-.4-1.9-.4-1.2-.1-2.3.9-2.4 2.1v.3c-.1 1.2.7 2.2 1.8 2.4h.4c.3 0 .6 0 .9-.1v-2.5H72v3.4c-.8.3-1.6.4-2.4.4-1.8.2-3.4-1.1-3.5-2.9v-.6c-.1-2 1.5-3.7 3.5-3.8h.5c.7 0 1.3.1 2 .3zm4.7 1.6c-1-.2-1.4.4-1.4 1.9v2.1h-1.3v-5.2H75c0 .3 0 .7-.1 1 .2-.7.9-1.2 1.6-1.2zm3.2-.2c-.7 0-1.2.7-1.2 1.4v.2c0 1.1.4 1.6 1.2 1.6.7 0 1.2-.5 1.2-1.6-.1-1-.4-1.6-1.2-1.6m-.2 4.3c-1.4 0-2.4-.8-2.4-2.6-.1-1.4 1-2.7 2.4-2.8h.2c1.5 0 2.4.8 2.4 2.6.1 1.4-1 2.7-2.4 2.8h-.2m7.2-.1c0-.3 0-.6.1-.9-.3.7-1 1.1-1.8 1-.8.1-1.5-.5-1.6-1.3v-4h1.3V33c0 .5.1.9.6.9.8-.2 1.3-.9 1.2-1.7v-2.5h1.3v5.2zm5.4-4.2c-.7 0-1.1.8-1.1 1.7v1.4c.2.1.5.1.7.1.8 0 1.3-.5 1.3-1.8 0-.9-.3-1.4-.9-1.4m-.5 4.2h-.7v2.5h-1.3v-7.7h1.2c0 .3 0 .6-.1.9.3-.6.9-1 1.6-1 1.2 0 1.9.9 1.9 2.4.2 1.8-.8 2.9-2.6 2.9"/></g></svg>